<svg xmlns="http://www.w3.org/2000/svg" viewBox="0 0 640 300" width="640" height="300" role="img" aria-label="Software Architecture: The Town Plan">
<defs><linearGradient id="g" x1="0" y1="0" x2="1" y2="1"><stop offset="0" stop-color="#0f5f66"/><stop offset="1" stop-color="#b4532f"/></linearGradient></defs>
<rect width="640" height="300" fill="url(#g)"/>
<g fill="none" stroke="#fff" stroke-opacity=".3" stroke-width="2" stroke-linejoin="round">
  <path d="M300 190 V120 h34 v70 M334 190 V100 h34 v90 M368 190 V120 h34 v70"/>
  <path d="M300 120 l17 -16 l17 16 M334 100 l17 -16 l17 16 M368 120 l17 -16 l17 16"/>
  <path d="M420 190 V88 h70 v102 M432 108 h14 M464 108 h14 M432 132 h14 M464 132 h14 M432 156 h14 M464 156 h14"/>
  <path d="M508 190 V130 l46 -30 l46 30 V190 M540 190 v-30 h28 v30"/>
  <path d="M280 190 H620"/>
  <path d="M300 214 H600 M300 232 H520" stroke-dasharray="6 8"/>
</g>
<text x="40" y="62" font-family="-apple-system,Segoe UI,Helvetica,Arial,sans-serif" font-size="14" font-weight="700" fill="#fff" fill-opacity=".85" letter-spacing="3">A SHORT STORY</text>
<text x="40" y="250" font-family="-apple-system,Segoe UI,Helvetica,Arial,sans-serif" font-size="40" font-weight="800" fill="#fff">Software Architecture</text>
<text x="40" y="282" font-family="-apple-system,Segoe UI,Helvetica,Arial,sans-serif" font-size="20" font-weight="500" fill="#fff" fill-opacity=".9">The Town Plan</text>
</svg>
